solid ascii_0
  facet normal -1 0 0
    outer loop
       vertex 0 0 0
       vertex 0 0 1
       vertex 0 1 0
    endloop
  endfacet
  facet normal -1 -0 -0
    outer loop
       vertex 0 1 1
       vertex 0 1 0
       vertex 0 0 1
    endloop
  endfacet
endsolid ascii_0
solid ascii_1
  facet normal 1 0 0
    outer loop
       vertex 1 0 0
       vertex 1 1 0
       vertex 1 0 1
    endloop
  endfacet
  facet normal 1 0 0
    outer loop
       vertex 1 1 1
       vertex 1 0 1
       vertex 1 1 0
    endloop
  endfacet
endsolid ascii_1
solid ascii_2
  facet normal 0 -1 0
    outer loop
       vertex 0 0 0
       vertex 1 0 0
       vertex 0 0 1
    endloop
  endfacet
  facet normal -0 -1 -0
    outer loop
       vertex 1 0 1
       vertex 0 0 1
       vertex 1 0 0
    endloop
  endfacet
endsolid ascii_2
solid ascii_3
  facet normal 0 1 0
    outer loop
       vertex 0 1 0
       vertex 0 1 1
       vertex 1 1 0
    endloop
  endfacet
  facet normal 0 1 0
    outer loop
       vertex 1 1 1
       vertex 1 1 0
       vertex 0 1 1
    endloop
  endfacet
endsolid ascii_3
solid ascii_4
  facet normal 0 0 -1
    outer loop
       vertex 0 0 0
       vertex 0 1 0
       vertex 1 0 0
    endloop
  endfacet
  facet normal -0 -0 -1
    outer loop
       vertex 1 1 0
       vertex 1 0 0
       vertex 0 1 0
    endloop
  endfacet
endsolid ascii_4
solid ascii_5
  facet normal 0 0 1
    outer loop
       vertex 0 0 1
       vertex 1 0 1
       vertex 0 1 1
    endloop
  endfacet
  facet normal 0 0 1
    outer loop
       vertex 1 1 1
       vertex 0 1 1
       vertex 1 0 1
    endloop
  endfacet
endsolid ascii_5
